<?xml version="1.0" standalone="no"?>
<!DOCTYPE svg PUBLIC "-//W3C//DTD SVG 1.1//EN" "http://www.w3.org/Graphics/SVG/1.1/DTD/svg11.dtd">
<svg version="1.1" xmlns="http://www.w3.org/2000/svg" viewBox="0 0 582.2722019735086 582.2722019735086" width="1164.5444039470171" height="1164.5444039470171"><!-- svg-source:excalidraw --><metadata></metadata><defs><style class="style-fonts">
      </style></defs><rect x="0" y="0" width="582.2722019735086" height="582.2722019735086" fill="#ffffff"></rect><g transform="translate(187.0689844396528 524.8861349521574) rotate(358.98302196928086 125.05961066058393 -94.30917812232002)" stroke="none"><path fill="#e03131" d="M 0.92,-59.97 Q 0.92,-59.97 2.51,-59.77 4.10,-59.57 7.24,-58.96 10.39,-58.35 12.91,-57.97 15.44,-57.59 18.51,-57.18 21.59,-56.78 24.67,-56.51 27.74,-56.25 30.97,-56.03 34.20,-55.81 36.37,-55.74 38.54,-55.68 42.57,-55.62 46.61,-55.57 50.48,-55.78 54.35,-56.00 58.13,-56.71 61.90,-57.42 65.85,-58.63 69.79,-59.85 72.38,-61.19 74.98,-62.53 76.86,-64.15 78.74,-65.77 80.65,-68.08 82.56,-70.39 84.79,-73.23 87.03,-76.06 89.39,-79.55 91.75,-83.04 93.91,-87.05 96.07,-91.07 97.74,-93.80 99.41,-96.53 101.03,-99.12 102.65,-101.71 104.30,-103.99 105.96,-106.26 107.48,-108.28 109.00,-110.30 110.74,-112.35 112.47,-114.41 114.73,-116.45 116.98,-118.49 119.25,-120.30 121.51,-122.10 124.28,-123.81 127.04,-125.51 128.95,-126.60 130.87,-127.69 133.92,-129.03 136.98,-130.36 142.12,-132.53 147.25,-134.69 150.42,-135.76 153.59,-136.83 157.95,-137.68 162.31,-138.53 164.94,-139.21 167.57,-139.89 170.70,-140.55 173.83,-141.21 176.93,-141.78 180.03,-142.36 183.49,-142.73 186.94,-143.09 190.50,-143.22 194.05,-143.35 197.42,-143.40 200.79,-143.45 204.08,-143.48 207.38,-143.50 210.35,-143.56 213.33,-143.61 215.74,-143.72 218.15,-143.82 220.47,-143.78 222.80,-143.74 225.83,-143.50 228.86,-143.26 231.41,-143.12 233.96,-142.99 236.47,-142.90 238.97,-142.82 241.84,-142.52 244.70,-142.21 247.53,-142.01 250.36,-141.80 251.38,-141.59 252.40,-141.38 253.30,-140.86 254.21,-140.34 254.89,-139.55 255.58,-138.77 255.98,-137.81 256.39,-136.85 256.46,-135.81 256.53,-134.77 256.27,-133.76 256.01,-132.75 255.44,-131.87 254.87,-131.00 254.05,-130.36 253.23,-129.71 252.24,-129.36 251.26,-129.01 250.22,-129.00 249.18,-128.98 248.18,-129.30 247.19,-129.61 246.35,-130.23 245.51,-130.85 244.91,-131.70 244.31,-132.56 244.01,-133.56 243.72,-134.56 243.76,-135.60 243.80,-136.64 244.17,-137.61 244.54,-138.59 245.20,-139.40 245.86,-140.20 246.75,-140.75 247.63,-141.31 248.65,-141.55 249.66,-141.79 250.70,-141.69 251.74,-141.60 252.69,-141.17 253.64,-140.75 254.41,-140.05 255.18,-139.34 255.68,-138.43 256.19,-137.51 256.37,-136.49 256.56,-135.46 256.41,-134.43 256.26,-133.40 255.78,-132.47 255.31,-131.54 254.56,-130.81 253.82,-130.08 252.88,-129.63 251.94,-129.18 250.90,-129.05 249.87,-128.92 249.87,-128.92 249.87,-128.92 247.27,-129.30 244.66,-129.67 241.62,-130.27 238.57,-130.87 236.40,-131.12 234.23,-131.37 231.76,-131.96 229.29,-132.54 226.88,-133.04 224.47,-133.54 221.32,-134.05 218.17,-134.56 215.77,-134.65 213.36,-134.75 210.41,-134.78 207.45,-134.81 204.21,-134.78 200.97,-134.74 197.71,-134.66 194.46,-134.58 191.21,-134.39 187.95,-134.20 184.81,-133.81 181.67,-133.43 178.70,-132.89 175.72,-132.35 172.65,-131.69 169.57,-131.03 167.04,-130.54 164.51,-130.05 160.77,-128.80 157.03,-127.56 153.94,-126.31 150.85,-125.06 148.18,-123.98 145.51,-122.91 143.46,-121.93 141.42,-120.95 137.04,-118.76 132.67,-116.57 130.47,-115.15 128.27,-113.74 126.27,-112.08 124.26,-110.43 122.55,-108.89 120.83,-107.34 119.29,-105.51 117.74,-103.67 116.27,-101.74 114.80,-99.80 113.45,-97.96 112.10,-96.13 110.69,-93.60 109.29,-91.07 107.89,-88.24 106.48,-85.42 105.33,-83.17 104.18,-80.92 103.11,-78.80 102.05,-76.69 99.61,-72.76 97.17,-68.83 94.76,-65.68 92.36,-62.54 89.82,-59.64 87.28,-56.75 84.21,-54.38 81.14,-52.01 77.35,-50.24 73.55,-48.47 71.38,-47.75 69.21,-47.03 66.83,-46.33 64.45,-45.62 60.05,-44.77 55.65,-43.93 51.11,-43.60 46.58,-43.27 42.47,-43.25 38.36,-43.24 35.92,-43.24 33.49,-43.24 30.24,-43.54 26.99,-43.84 23.34,-44.26 19.69,-44.68 16.50,-45.25 13.31,-45.82 10.52,-46.48 7.73,-47.14 4.96,-47.92 2.19,-48.71 0.63,-49.06 -0.92,-49.41 -1.54,-49.60 -2.16,-49.78 -2.71,-50.12 -3.27,-50.45 -3.73,-50.90 -4.19,-51.35 -4.53,-51.90 -4.87,-52.45 -5.06,-53.07 -5.26,-53.68 -5.31,-54.33 -5.35,-54.97 -5.24,-55.61 -5.13,-56.25 -4.87,-56.84 -4.61,-57.43 -4.21,-57.94 -3.82,-58.45 -3.31,-58.86 -2.80,-59.26 -2.22,-59.53 -1.63,-59.80 -0.99,-59.92 -0.36,-60.04 0.28,-60.01 0.92,-59.97 0.92,-59.97 L 0.92,-59.97 Z"></path></g><g transform="translate(250.9502183127156 244.6438858435825) rotate(0 8.573619218624913 83.89898806797163)" stroke="none"><path fill="#1e1e1e" d="M 2.92,1.10 Q 2.92,1.10 0.92,6.18 -1.07,11.27 -3.36,16.79 -5.65,22.32 -8.06,27.69 -10.47,33.05 -12.53,38.08 -14.60,43.12 -16.53,48.23 -18.47,53.35 -20.33,59.33 -22.20,65.32 -23.69,71.67 -25.17,78.03 -25.79,83.78 -26.41,89.53 -26.68,95.65 -26.95,101.76 -26.03,106.94 -25.11,112.11 -23.68,115.56 -22.25,119.00 -18.11,124.70 -13.97,130.40 -9.29,135.08 -4.62,139.76 2.01,144.49 8.64,149.23 12.39,151.82 16.14,154.41 20.27,156.68 24.39,158.95 27.87,160.34 31.35,161.73 34.09,162.51 36.84,163.29 39.98,163.43 43.12,163.57 44.60,162.00 46.09,160.43 46.61,160.44 47.13,160.45 47.63,160.58 48.14,160.71 48.59,160.96 49.05,161.21 49.44,161.56 49.82,161.92 50.11,162.35 50.40,162.78 50.58,163.27 50.75,163.76 50.81,164.28 50.86,164.80 50.79,165.32 50.72,165.83 50.53,166.32 50.33,166.80 50.03,167.23 49.73,167.65 49.33,167.99 48.94,168.33 48.47,168.56 48.00,168.80 47.50,168.92 46.99,169.03 44.60,166.99 42.22,164.95 42.30,164.26 42.37,163.56 42.67,162.93 42.97,162.29 43.45,161.79 43.93,161.28 44.55,160.95 45.17,160.63 45.86,160.52 46.55,160.41 47.24,160.52 47.93,160.64 48.55,160.97 49.17,161.30 49.65,161.81 50.13,162.32 50.42,162.95 50.71,163.59 50.78,164.28 50.86,164.98 50.70,165.66 50.55,166.35 50.19,166.94 49.82,167.54 49.29,167.99 48.75,168.44 48.10,168.70 47.45,168.96 46.75,168.99 46.05,169.03 45.38,168.84 44.71,168.65 44.13,168.25 43.55,167.86 43.13,167.30 42.71,166.74 42.49,166.08 42.27,165.42 42.27,164.72 42.27,164.02 42.50,163.35 42.72,162.69 43.15,162.14 43.57,161.58 44.16,161.19 44.74,160.80 45.41,160.61 46.09,160.43 46.78,160.47 47.48,160.51 48.13,160.77 48.78,161.03 49.31,161.49 49.84,161.94 50.20,162.54 50.56,163.14 48.32,161.79 46.09,160.43 46.61,160.44 47.13,160.45 47.63,160.58 48.14,160.71 48.59,160.96 49.05,161.21 49.44,161.56 49.82,161.92 50.11,162.35 50.40,162.78 50.58,163.27 50.75,163.76 50.81,164.28 50.86,164.80 50.79,165.32 50.72,165.83 50.53,166.32 50.33,166.80 50.03,167.23 49.73,167.65 49.33,167.99 48.94,168.33 48.47,168.56 48.01,168.80 47.50,168.92 46.99,169.03 45.99,170.29 44.98,171.55 42.04,171.14 39.10,170.74 36.87,170.04 34.64,169.35 31.89,168.13 29.14,166.91 25.49,165.25 21.84,163.60 17.48,161.20 13.12,158.80 9.32,156.19 5.52,153.58 -1.44,148.58 -8.42,143.57 -13.40,138.58 -18.38,133.59 -22.87,127.32 -27.36,121.05 -28.84,117.04 -30.32,113.03 -31.29,107.30 -32.25,101.56 -31.98,95.26 -31.71,88.96 -31.05,82.89 -30.39,76.81 -28.87,70.27 -27.36,63.72 -25.47,57.58 -23.58,51.43 -21.65,46.24 -19.73,41.04 -17.67,35.91 -15.62,30.77 -13.32,25.46 -11.01,20.15 -8.84,14.65 -6.66,9.15 -4.79,4.02 -2.92,-1.10 -2.74,-1.44 -2.57,-1.77 -2.32,-2.05 -2.07,-2.33 -1.76,-2.55 -1.45,-2.76 -1.09,-2.90 -0.74,-3.03 -0.37,-3.07 0.00,-3.12 0.37,-3.07 0.74,-3.03 1.10,-2.89 1.45,-2.76 1.76,-2.55 2.07,-2.33 2.32,-2.05 2.57,-1.77 2.74,-1.44 2.92,-1.10 3.01,-0.74 3.10,-0.37 3.10,0.00 3.10,0.37 3.01,0.74 2.92,1.10 2.92,1.10 L 2.92,1.10 Z"></path></g><g transform="translate(307.9035459792949 405.0930455064187) rotate(0 3.6744082365535746 5.817813041209774)" stroke="none"><path fill="#1e1e1e" d="M 1.41,4.93 Q 1.41,4.93 -1.03,5.65 -3.48,6.38 -4.79,4.52 -6.10,2.66 -5.07,5.07 -4.05,7.48 -2.88,9.41 -1.71,11.34 -2.80,9.00 -3.90,6.67 -1.57,6.84 0.74,7.00 -0.51,9.27 -1.78,11.54 -1.05,13.89 -0.32,16.24 -1.07,12.38 -1.82,8.52 -1.40,6.08 -0.97,3.64 0.60,5.10 2.17,6.55 4.38,5.90 6.59,5.24 7.34,3.19 8.09,1.14 7.36,-1.06 6.64,-3.27 4.62,-4.17 2.60,-5.07 2.73,-1.23 2.86,2.60 4.96,3.56 7.06,4.53 9.33,4.03 11.60,3.54 10.35,0.11 9.10,-3.31 10.15,-5.57 11.19,-7.84 11.91,-8.35 12.63,-8.87 13.45,-9.19 14.27,-9.52 15.14,-9.64 16.01,-9.77 16.89,-9.68 17.77,-9.58 18.60,-9.29 19.43,-8.99 20.17,-8.50 20.90,-8.01 21.50,-7.36 22.10,-6.71 22.52,-5.94 22.95,-5.16 23.17,-4.31 23.40,-3.46 23.41,-2.58 23.43,-1.69 23.23,-0.83 23.04,0.02 22.64,0.81 22.25,1.60 21.67,2.27 21.10,2.94 17.00,3.58 12.89,4.22 14.00,2.85 15.10,1.48 15.16,2.66 15.23,3.85 14.91,4.99 14.59,6.13 13.93,7.10 13.27,8.08 12.32,8.80 11.38,9.52 10.26,9.89 9.14,10.27 7.96,10.27 6.78,10.27 5.65,9.90 4.53,9.52 3.59,8.80 2.65,8.09 1.98,7.11 1.32,6.13 1.00,4.99 0.69,3.85 0.75,2.67 0.81,1.49 1.25,0.39 1.69,-0.70 2.46,-1.60 3.22,-2.51 4.23,-3.12 5.25,-3.73 6.40,-3.98 7.56,-4.23 8.74,-4.11 9.91,-3.98 10.99,-3.48 12.06,-2.99 12.92,-2.17 13.78,-1.36 14.33,-0.31 14.89,0.72 15.08,1.89 15.27,3.06 15.08,4.22 14.89,5.39 14.33,6.44 13.78,7.48 12.92,8.30 12.06,9.11 10.99,9.61 9.91,10.10 8.74,10.23 7.56,10.36 6.41,10.10 5.25,9.85 4.24,9.24 3.22,8.63 2.46,7.73 1.69,6.83 1.25,5.73 0.81,4.63 0.82,4.63 0.82,4.63 4.28,-1.62 7.75,-7.89 12.39,-8.85 17.02,-9.82 14.11,-8.83 11.19,-7.84 11.91,-8.35 12.63,-8.87 13.45,-9.19 14.27,-9.52 15.14,-9.64 16.01,-9.77 16.89,-9.68 17.77,-9.58 18.60,-9.29 19.43,-8.99 20.17,-8.50 20.90,-8.01 21.50,-7.36 22.10,-6.71 22.52,-5.94 22.94,-5.16 23.17,-4.31 23.40,-3.46 23.41,-2.58 23.43,-1.69 23.23,-0.83 23.04,0.02 22.64,0.81 22.25,1.60 21.67,2.27 21.10,2.94 19.37,4.48 17.64,6.02 14.82,7.41 12.01,8.80 9.25,9.55 6.49,10.29 3.87,9.61 1.25,8.93 -0.31,7.08 -1.87,5.22 -1.91,1.44 -1.95,-2.34 0.55,-5.30 3.06,-8.26 5.69,-8.73 8.31,-9.20 10.87,-8.08 13.43,-6.97 14.26,-4.56 15.08,-2.14 14.94,0.00 14.79,2.15 12.42,4.82 10.05,7.50 6.15,8.48 2.24,9.47 -1.09,7.48 -4.44,5.50 -4.85,3.35 -5.27,1.19 -4.27,-1.74 -3.27,-4.69 0.07,-6.04 3.42,-7.40 6.52,-6.41 9.61,-5.42 11.10,-3.53 12.58,-1.64 13.17,0.54 13.77,2.72 12.67,6.32 11.58,9.92 10.23,11.92 8.88,13.91 5.75,16.67 2.62,19.44 0.39,20.41 -1.83,21.39 -4.52,20.88 -7.22,20.37 -9.59,16.34 -11.95,12.31 -11.23,9.68 -10.52,7.05 -9.02,5.26 -7.53,3.46 -3.48,2.61 0.56,1.76 2.89,2.46 5.22,3.16 7.33,4.56 9.44,5.95 10.30,8.45 11.17,10.94 10.76,13.52 10.34,16.10 8.70,17.73 7.06,19.35 4.66,20.14 2.25,20.93 -0.98,20.73 -4.22,20.52 -6.64,19.99 -9.06,19.46 -11.08,17.90 -13.09,16.34 -14.11,13.73 -15.13,11.11 -14.58,7.86 -14.02,4.62 -12.00,1.15 -9.97,-2.31 -7.79,-3.52 -5.61,-4.74 -1.74,-4.40 2.11,-4.06 3.86,-2.41 5.60,-0.76 6.00,2.60 6.40,5.97 4.50,8.65 2.60,11.34 0.05,12.49 -2.49,13.65 -5.44,13.94 -8.40,14.22 -10.87,12.45 -13.35,10.68 -14.03,8.52 -14.70,6.37 -13.72,3.50 -12.74,0.64 -9.55,-1.45 -6.37,-3.56 -3.89,-4.25 -1.41,-4.93 -0.79,-5.03 -0.18,-5.13 0.42,-5.08 1.04,-5.02 1.63,-4.83 2.21,-4.63 2.74,-4.29 3.26,-3.96 3.69,-3.51 4.11,-3.07 4.42,-2.53 4.73,-1.99 4.90,-1.40 5.07,-0.80 5.09,-0.18 5.11,0.43 4.99,1.03 4.86,1.64 4.59,2.20 4.33,2.76 3.93,3.23 3.54,3.71 3.04,4.08 2.55,4.45 1.98,4.69 1.41,4.93 1.41,4.93 L 1.41,4.93 Z"></path></g><g transform="translate(248.50061282168008 244.0314844708235) rotate(0 -32.15107206984314 -61.2401372758917)" stroke="none"><path fill="#1e1e1e" d="M -1.24,4.67 Q -1.24,4.67 -3.89,3.99 -6.55,3.31 -9.59,2.01 -12.64,0.70 -15.14,-0.27 -17.65,-1.26 -20.01,-2.19 -22.38,-3.13 -24.68,-4.30 -26.99,-5.48 -29.23,-6.61 -31.47,-7.75 -34.35,-9.66 -37.23,-11.58 -39.77,-13.21 -42.31,-14.85 -44.22,-16.05 -46.13,-17.25 -48.65,-19.05 -51.17,-20.85 -53.39,-22.23 -55.61,-23.61 -57.67,-25.30 -59.72,-27.00 -62.80,-30.81 -65.87,-34.62 -66.84,-36.99 -67.80,-39.37 -68.40,-41.73 -69.01,-44.10 -69.30,-46.55 -69.59,-49.01 -69.70,-51.48 -69.80,-53.95 -69.86,-56.22 -69.92,-58.49 -69.78,-60.76 -69.65,-63.03 -68.93,-67.51 -68.21,-71.99 -67.64,-74.17 -67.07,-76.36 -66.00,-79.06 -64.94,-81.76 -63.47,-84.47 -62.01,-87.19 -60.68,-89.42 -59.35,-91.64 -57.87,-94.72 -56.40,-97.79 -55.24,-99.98 -54.08,-102.17 -54.73,-104.21 -55.39,-106.26 -56.87,-108.91 -58.35,-111.57 -61.29,-115.39 -64.23,-119.22 -64.60,-120.27 -64.96,-121.32 -64.96,-122.44 -64.97,-123.55 -64.62,-124.61 -64.27,-125.66 -63.60,-126.55 -62.93,-127.44 -62.02,-128.07 -61.10,-128.70 -60.03,-129.01 -58.96,-129.31 -57.84,-129.26 -56.73,-129.20 -55.69,-128.80 -54.66,-128.39 -53.81,-127.68 -52.95,-126.96 -52.37,-126.01 -51.79,-125.06 -51.55,-123.97 -51.30,-122.89 -51.42,-121.78 -51.53,-120.67 -51.99,-119.66 -52.46,-118.64 -53.22,-117.83 -53.98,-117.02 -54.96,-116.49 -55.94,-115.97 -57.04,-115.78 -58.14,-115.59 -59.24,-115.77 -60.33,-115.94 -61.32,-116.46 -62.31,-116.97 -63.08,-117.78 -63.85,-118.58 -64.32,-119.59 -64.79,-120.60 -64.92,-121.70 -65.05,-122.81 -64.81,-123.90 -64.58,-124.99 -64.01,-125.94 -63.44,-126.90 -62.60,-127.63 -61.75,-128.35 -60.72,-128.77 -59.69,-129.19 -58.58,-129.25 -57.47,-129.32 -56.39,-129.03 -55.32,-128.74 -54.39,-128.12 -53.47,-127.50 -52.79,-126.61 -52.11,-125.73 -52.11,-125.73 -52.11,-125.73 -50.14,-123.08 -48.17,-120.43 -46.86,-118.30 -45.56,-116.18 -44.27,-113.37 -42.97,-110.56 -42.21,-107.80 -41.44,-105.04 -41.72,-102.46 -42.00,-99.87 -43.46,-97.27 -44.93,-94.66 -46.16,-92.30 -47.40,-89.94 -48.53,-87.91 -49.66,-85.87 -50.83,-83.91 -51.99,-81.95 -53.09,-79.78 -54.18,-77.61 -54.98,-75.44 -55.79,-73.27 -56.73,-69.46 -57.67,-65.64 -58.12,-62.15 -58.57,-58.67 -58.55,-56.52 -58.54,-54.36 -58.47,-52.22 -58.41,-50.08 -57.96,-46.58 -57.50,-43.07 -56.31,-40.05 -55.11,-37.02 -52.68,-34.57 -50.24,-32.12 -47.86,-30.60 -45.47,-29.08 -41.26,-26.15 -37.04,-23.22 -34.45,-21.63 -31.86,-20.03 -29.28,-18.48 -26.71,-16.93 -22.61,-14.66 -18.52,-12.38 -16.25,-11.38 -13.97,-10.39 -11.36,-9.31 -8.74,-8.24 -6.37,-7.18 -4.01,-6.13 -1.38,-5.40 1.24,-4.67 1.78,-4.46 2.33,-4.24 2.80,-3.90 3.27,-3.56 3.65,-3.11 4.03,-2.67 4.29,-2.15 4.55,-1.63 4.68,-1.06 4.81,-0.49 4.80,0.09 4.79,0.67 4.64,1.23 4.49,1.80 4.21,2.31 3.93,2.82 3.53,3.25 3.14,3.68 2.65,4.00 2.16,4.32 1.61,4.52 1.06,4.72 0.48,4.78 -0.09,4.84 -0.67,4.75 -1.24,4.67 -1.24,4.67 L -1.24,4.67 Z"></path></g><g transform="translate(190.3224824095828 117.87680168248662) rotate(0 12.554228141557815 -4.286809609312414)" stroke="none"><path fill="#1e1e1e" d="M -2.24,-4.27 Q -2.24,-4.27 1.58,-5.97 5.40,-7.68 8.58,-8.96 11.76,-10.24 14.02,-11.08 16.28,-11.92 19.05,-12.63 21.83,-13.35 24.24,-13.08 26.65,-12.81 26.16,-11.94 25.67,-11.08 26.24,-10.79 26.81,-10.50 27.29,-10.09 27.77,-9.67 28.14,-9.16 28.51,-8.64 28.74,-8.05 28.98,-7.46 29.06,-6.83 29.15,-6.20 29.08,-5.57 29.02,-4.93 28.80,-4.34 28.58,-3.74 28.23,-3.21 27.88,-2.68 27.41,-2.25 26.94,-1.83 26.38,-1.52 25.82,-1.22 25.21,-1.06 24.59,-0.90 23.96,-0.89 23.32,-0.88 22.70,-1.02 22.08,-1.16 22.69,-1.02 23.29,-0.88 22.47,-1.11 21.65,-1.34 20.95,-1.82 20.24,-2.30 19.73,-2.98 19.21,-3.66 18.94,-4.47 18.67,-5.28 18.68,-6.13 18.68,-6.99 18.95,-7.79 19.23,-8.60 19.75,-9.28 20.26,-9.96 20.97,-10.43 21.68,-10.91 22.50,-11.14 23.32,-11.36 24.18,-11.31 25.03,-11.26 25.82,-10.95 26.61,-10.63 27.26,-10.07 27.91,-9.52 28.34,-8.79 28.78,-8.06 28.96,-7.22 29.14,-6.39 29.05,-5.54 28.95,-4.69 28.59,-3.92 28.23,-3.15 27.64,-2.53 27.06,-1.91 26.30,-1.52 25.55,-1.12 24.70,-0.98 23.86,-0.85 23.02,-0.99 22.18,-1.13 21.43,-1.53 20.68,-1.93 20.09,-2.55 19.51,-3.17 19.15,-3.95 18.79,-4.72 18.70,-5.57 18.62,-6.42 18.80,-7.25 18.99,-8.09 19.43,-8.82 19.87,-9.54 20.52,-10.09 21.17,-10.64 21.97,-10.96 22.76,-11.27 24.22,-11.17 25.67,-11.08 26.24,-10.79 26.81,-10.50 27.29,-10.09 27.77,-9.67 28.14,-9.16 28.51,-8.64 28.74,-8.05 28.98,-7.46 29.06,-6.83 29.15,-6.20 29.08,-5.57 29.02,-4.93 28.80,-4.34 28.58,-3.74 28.23,-3.21 27.88,-2.68 27.41,-2.25 26.94,-1.83 26.38,-1.52 25.82,-1.22 25.21,-1.06 24.59,-0.90 23.96,-0.89 23.32,-0.88 22.70,-1.02 22.08,-1.16 21.77,-2.30 21.46,-3.43 18.20,-2.81 14.94,-2.20 12.16,-1.13 9.38,-0.06 5.81,2.10 2.24,4.27 1.69,4.48 1.15,4.68 0.57,4.75 -0.00,4.82 -0.58,4.75 -1.15,4.68 -1.70,4.47 -2.24,4.27 -2.72,3.94 -3.20,3.61 -3.58,3.17 -3.97,2.73 -4.24,2.22 -4.51,1.70 -4.65,1.14 -4.79,0.57 -4.79,-0.00 -4.79,-0.58 -4.65,-1.15 -4.51,-1.71 -4.24,-2.23 -3.97,-2.74 -3.58,-3.18 -3.19,-3.61 -2.71,-3.94 -2.23,-4.27 -2.23,-4.27 L -2.24,-4.27 Z"></path></g><g transform="translate(214.20613594718066 112.97759070041528) rotate(0 -0.6124013727589954 1.4210854715202004e-14)" stroke="none"><path fill="#1e1e1e" d="M -4.70,1.56 Q -4.70,1.56 -4.84,1.20 -4.98,0.83 -1.44,1.54 2.09,2.25 1.81,3.12 1.52,3.99 1.00,4.37 0.48,4.75 -0.11,5.00 -0.71,5.25 -1.35,5.35 -1.99,5.45 -2.63,5.39 -3.28,5.33 -3.89,5.12 -4.50,4.91 -5.05,4.56 -5.59,4.21 -6.04,3.74 -6.48,3.27 -6.80,2.70 -7.12,2.14 -7.29,1.51 -7.47,0.89 -7.49,0.24 -7.51,-0.40 -7.37,-1.03 -7.24,-1.66 -6.96,-2.25 -6.67,-2.83 -6.26,-3.33 -5.84,-3.83 -3.54,-4.58 -1.24,-5.34 -1.91,-5.49 -2.57,-5.65 -1.98,-5.97 -1.38,-6.29 -0.73,-6.45 -0.07,-6.62 0.59,-6.63 1.27,-6.63 1.93,-6.48 2.59,-6.32 3.19,-6.01 3.79,-5.70 4.30,-5.26 4.81,-4.81 5.20,-4.26 5.58,-3.71 5.83,-3.08 6.07,-2.45 6.16,-1.78 6.25,-1.11 6.17,-0.43 6.10,0.23 5.86,0.86 5.63,1.50 5.25,2.06 4.87,2.62 4.36,3.07 3.86,3.52 2.97,4.64 2.07,5.75 1.49,6.16 0.90,6.56 0.24,6.82 -0.41,7.07 -1.12,7.16 -1.82,7.25 -2.53,7.17 -3.24,7.08 -3.90,6.83 -4.57,6.58 -5.15,6.18 -5.74,5.78 -6.21,5.25 -6.69,4.72 -7.02,4.09 -7.35,3.47 -7.53,2.78 -7.70,2.09 -7.70,1.38 -7.70,0.66 -7.54,-0.02 -7.37,-0.71 -7.04,-1.34 -6.71,-1.97 -6.24,-2.50 -5.77,-3.04 -5.68,-2.60 -5.59,-2.17 -5.10,-3.00 -4.60,-3.84 -3.87,-4.47 -3.13,-5.11 -2.23,-5.48 -1.34,-5.84 -0.37,-5.90 0.59,-5.97 1.53,-5.71 2.47,-5.46 3.27,-4.92 4.08,-4.39 4.68,-3.62 5.27,-2.85 5.59,-1.93 5.91,-1.02 5.92,-0.05 5.92,0.91 5.62,1.84 5.32,2.76 4.74,3.54 4.16,4.32 3.36,4.87 2.56,5.42 1.63,5.69 0.70,5.95 -0.26,5.91 -1.23,5.87 -2.14,5.51 -3.04,5.16 -3.79,4.54 -4.53,3.92 -5.04,3.09 -5.55,2.26 -5.77,1.32 -5.98,0.37 -5.89,-0.58 -5.79,-1.55 -5.39,-2.43 -4.99,-3.32 -4.33,-4.03 -3.67,-4.74 -2.81,-5.20 -1.96,-5.66 -1.00,-5.83 -0.05,-6.00 0.90,-5.85 1.86,-5.70 2.72,-5.25 3.59,-4.80 4.26,-4.10 4.93,-3.40 5.35,-2.53 5.76,-1.65 5.88,-0.69 5.99,0.27 5.79,1.22 5.59,2.17 5.59,2.17 5.59,2.17 3.83,3.96 2.07,5.75 1.49,6.16 0.91,6.56 0.24,6.82 -0.41,7.07 -1.12,7.16 -1.82,7.25 -2.53,7.17 -3.23,7.08 -3.90,6.83 -4.57,6.59 -5.15,6.18 -5.74,5.78 -6.21,5.25 -6.69,4.72 -7.02,4.09 -7.35,3.47 -7.52,2.78 -7.70,2.09 -7.70,1.38 -7.70,0.67 -7.54,-0.02 -7.37,-0.71 -7.04,-1.34 -6.71,-1.97 -6.24,-2.50 -5.77,-3.04 -6.11,-2.53 -6.45,-2.02 -4.51,-3.84 -2.57,-5.65 -1.98,-5.97 -1.38,-6.29 -0.73,-6.45 -0.07,-6.62 0.59,-6.63 1.27,-6.63 1.93,-6.48 2.58,-6.32 3.19,-6.01 3.79,-5.70 4.30,-5.26 4.81,-4.81 5.20,-4.26 5.58,-3.71 5.83,-3.08 6.07,-2.45 6.16,-1.78 6.25,-1.11 6.17,-0.43 6.10,0.23 5.86,0.86 5.63,1.50 5.25,2.06 4.87,2.61 4.37,3.07 3.86,3.52 4.55,1.93 5.25,0.33 3.38,2.16 1.52,3.98 1.00,4.37 0.48,4.75 -0.11,5.00 -0.71,5.25 -1.35,5.35 -1.99,5.45 -2.63,5.39 -3.28,5.33 -3.89,5.12 -4.50,4.91 -5.05,4.56 -5.59,4.21 -6.04,3.74 -6.48,3.27 -6.80,2.70 -7.12,2.14 -7.29,1.51 -7.47,0.89 -7.49,0.24 -7.51,-0.40 -7.37,-1.03 -7.24,-1.66 -6.96,-2.25 -6.67,-2.83 -6.26,-3.33 -5.84,-3.82 -4.82,-4.54 -3.80,-5.26 0.23,-4.10 4.27,-2.95 4.49,-2.25 4.70,-1.56 4.82,-0.98 4.93,-0.39 4.91,0.20 4.89,0.79 4.72,1.37 4.55,1.94 4.25,2.46 3.96,2.97 3.54,3.40 3.13,3.84 2.62,4.15 2.12,4.47 1.55,4.66 0.98,4.85 0.39,4.90 -0.20,4.95 -0.79,4.85 -1.38,4.75 -1.93,4.52 -2.48,4.29 -2.95,3.93 -3.43,3.57 -3.81,3.10 -4.18,2.64 -4.44,2.10 -4.70,1.56 -4.70,1.56 L -4.70,1.56 Z"></path></g><g transform="translate(254.01222517651036 244.6438858435825) rotate(0 38.887487170191264 -65.22074619882468)" stroke="none"><path fill="#1e1e1e" d="M -1.09,-2.92 Q -1.09,-2.92 3.15,-4.44 7.40,-5.96 11.90,-8.12 16.40,-10.27 22.27,-14.11 28.14,-17.94 31.52,-20.43 34.91,-22.92 38.87,-26.86 42.84,-30.80 46.22,-35.36 49.60,-39.93 52.40,-45.12 55.21,-50.31 57.97,-56.87 60.74,-63.42 63.50,-71.29 66.25,-79.15 68.31,-85.32 70.37,-91.50 71.58,-96.32 72.78,-101.14 73.35,-104.77 73.93,-108.39 74.00,-111.09 74.07,-113.79 73.04,-116.32 72.01,-118.85 70.07,-120.60 68.12,-122.36 65.67,-122.99 63.22,-123.62 60.86,-123.93 58.51,-124.25 56.00,-124.44 53.49,-124.63 51.36,-124.56 49.22,-124.49 46.20,-124.37 43.17,-124.24 37.09,-124.48 31.01,-124.71 30.41,-125.55 29.81,-126.39 29.51,-127.37 29.21,-128.36 29.23,-129.38 29.26,-130.41 29.62,-131.38 29.97,-132.35 30.62,-133.15 31.27,-133.95 32.13,-134.51 33.00,-135.06 34.00,-135.31 35.00,-135.56 36.03,-135.47 37.05,-135.39 38.00,-134.98 38.95,-134.57 39.71,-133.89 40.48,-133.20 40.99,-132.30 41.49,-131.40 41.69,-130.39 41.88,-129.38 41.74,-128.36 41.60,-127.34 41.14,-126.42 40.68,-125.49 39.95,-124.77 39.23,-124.04 38.30,-123.58 37.38,-123.12 36.36,-122.99 35.34,-122.85 34.33,-123.04 33.31,-123.24 32.42,-123.74 31.52,-124.25 30.83,-125.02 30.15,-125.79 29.74,-126.73 29.33,-127.68 29.25,-128.71 29.17,-129.73 29.42,-130.73 29.67,-131.73 30.22,-132.60 30.78,-133.47 31.58,-134.11 32.38,-134.76 33.35,-135.11 34.32,-135.47 35.35,-135.49 36.38,-135.52 37.36,-135.22 38.35,-134.91 39.18,-134.31 40.02,-133.71 40.02,-133.71 40.02,-133.71 39.45,-134.75 38.88,-135.79 42.02,-136.17 45.15,-136.55 47.29,-136.43 49.44,-136.32 51.92,-136.13 54.41,-135.94 57.23,-135.42 60.04,-134.90 62.98,-134.10 65.91,-133.29 69.98,-131.31 74.04,-129.34 76.79,-125.54 79.55,-121.75 80.07,-117.43 80.59,-113.10 80.07,-110.21 79.54,-107.32 78.72,-103.59 77.90,-99.86 76.65,-94.84 75.40,-89.83 73.33,-83.61 71.26,-77.40 68.46,-69.38 65.65,-61.35 62.79,-54.56 59.92,-47.76 56.93,-42.24 53.94,-36.72 50.31,-31.83 46.69,-26.94 42.45,-22.72 38.22,-18.49 34.73,-15.86 31.24,-13.23 25.09,-9.16 18.94,-5.09 14.22,-2.73 9.50,-0.37 5.29,1.27 1.09,2.92 0.73,3.01 0.36,3.10 -0.01,3.10 -0.38,3.10 -0.75,3.00 -1.11,2.91 -1.45,2.74 -1.78,2.56 -2.06,2.31 -2.34,2.06 -2.55,1.75 -2.77,1.44 -2.90,1.08 -3.03,0.73 -3.08,0.36 -3.12,-0.01 -3.07,-0.38 -3.03,-0.75 -2.89,-1.11 -2.76,-1.46 -2.54,-1.77 -2.33,-2.08 -2.04,-2.32 -1.76,-2.57 -1.43,-2.75 -1.09,-2.92 -1.09,-2.92 L -1.09,-2.92 Z"></path></g><g transform="translate(282.1826883234205 106.24117560006721) rotate(0 3.674408236553404 10.104622650522117)" stroke="none"><path fill="#1e1e1e" d="M 3.05,-4.07 Q 3.05,-4.07 4.05,-3.22 5.05,-2.38 6.11,-0.00 7.17,2.37 5.57,0.80 3.96,-0.76 3.68,2.69 3.40,6.15 5.86,7.35 8.32,8.55 6.97,4.70 5.62,0.84 3.00,3.18 0.39,5.52 2.12,8.01 3.85,10.51 6.07,10.37 8.30,10.23 8.41,7.43 8.52,4.63 6.89,3.18 5.26,1.73 2.32,4.84 -0.62,7.96 1.64,10.89 3.91,13.82 5.88,12.43 7.85,11.04 6.62,8.38 5.38,5.72 3.23,7.47 1.09,9.21 1.55,12.24 2.00,15.28 4.46,16.08 6.92,16.87 7.85,13.68 8.78,10.49 7.00,8.74 5.22,6.98 4.81,11.72 4.40,16.45 5.72,17.51 7.03,18.57 6.29,19.08 5.55,19.59 4.70,19.90 3.86,20.22 2.97,20.32 2.07,20.42 1.18,20.31 0.29,20.20 -0.54,19.88 -1.38,19.55 -2.12,19.04 -2.85,18.52 -3.45,17.85 -4.04,17.17 -4.45,16.37 -4.87,15.57 -5.08,14.70 -5.29,13.83 -5.29,12.93 -5.28,12.03 -5.06,11.15 -4.84,10.28 -4.42,9.49 -4.00,8.69 -3.40,8.02 -2.80,7.35 -2.54,10.63 -2.28,13.90 -0.62,9.46 1.02,5.02 1.87,4.72 2.73,4.42 3.62,4.34 4.52,4.25 5.42,4.38 6.31,4.52 7.14,4.86 7.98,5.20 8.71,5.73 9.44,6.27 10.02,6.96 10.60,7.65 11.00,8.46 11.39,9.27 11.59,10.15 11.78,11.03 11.76,11.94 11.73,12.84 11.49,13.71 11.25,14.58 10.81,15.37 10.37,16.15 9.75,16.81 9.14,17.47 8.38,17.97 7.63,18.46 6.83,21.03 6.03,23.59 5.41,24.25 4.80,24.91 4.05,25.40 3.30,25.89 2.46,26.19 1.61,26.48 0.72,26.57 -0.16,26.66 -1.05,26.53 -1.94,26.40 -2.77,26.06 -3.60,25.72 -4.33,25.20 -5.05,24.67 -5.63,23.98 -6.21,23.30 -6.61,22.49 -7.00,21.69 -7.20,20.81 -7.39,19.94 -7.37,19.04 -7.35,18.14 -7.11,17.28 -6.88,16.41 -6.44,15.63 -6.00,14.85 -3.36,13.31 -0.72,11.78 3.90,16.53 8.53,21.28 8.50,22.35 8.47,23.42 7.94,24.15 7.41,24.88 6.72,25.47 6.04,26.05 5.23,26.46 4.42,26.86 3.54,27.06 2.66,27.26 1.76,27.24 0.86,27.22 -0.00,26.99 -0.88,26.75 -1.67,26.32 -2.46,25.88 -3.12,25.27 -3.78,24.66 -4.28,23.91 -4.78,23.15 -5.08,22.30 -5.39,21.45 -5.48,20.56 -5.57,19.66 -5.44,18.77 -5.31,17.87 -4.98,17.03 -4.64,16.20 -2.98,14.86 -1.31,13.51 -0.52,13.08 0.26,12.64 1.13,12.41 2.00,12.18 2.91,12.16 3.81,12.14 4.69,12.34 5.57,12.54 6.38,12.94 7.19,13.34 7.88,13.93 8.56,14.51 9.09,15.25 9.62,15.98 9.96,16.82 10.29,17.65 10.42,18.55 10.55,19.44 10.46,20.34 10.36,21.24 10.06,22.09 9.76,22.94 9.26,23.69 8.76,24.45 8.10,25.06 7.43,25.67 2.34,24.99 -2.75,24.32 -3.35,23.26 -3.95,22.21 -4.18,21.02 -4.42,19.84 -4.26,18.63 -4.11,17.43 -3.57,16.34 -3.04,15.25 -2.19,14.39 -1.34,13.53 -0.25,12.99 0.82,12.44 2.02,12.27 3.22,12.10 4.41,12.32 5.60,12.55 6.66,13.14 7.72,13.73 8.53,14.63 9.35,15.52 9.83,16.63 10.32,17.75 10.42,18.95 10.53,20.16 10.24,21.34 9.95,22.52 9.31,23.54 8.66,24.56 7.72,25.33 6.78,26.09 5.64,26.52 4.51,26.94 3.30,26.98 2.08,27.02 0.92,26.67 -0.23,26.32 -1.21,25.62 -2.20,24.92 -2.91,23.94 -3.63,22.95 -3.99,21.80 -4.35,20.64 -4.32,19.43 -4.30,18.22 -3.88,17.08 -3.47,15.94 -2.72,14.99 -1.96,14.04 -0.95,13.38 0.06,12.73 1.24,12.43 2.41,12.13 3.62,12.22 4.83,12.31 5.94,12.79 7.06,13.26 2.87,13.39 -1.31,13.51 -0.52,13.08 0.26,12.64 1.13,12.41 2.00,12.18 2.91,12.16 3.81,12.14 4.69,12.34 5.57,12.54 6.38,12.94 7.19,13.34 7.87,13.93 8.56,14.51 9.09,15.25 9.62,15.98 9.96,16.82 10.29,17.65 10.42,18.55 10.55,19.44 10.46,20.34 10.36,21.24 10.06,22.09 9.76,22.94 9.26,23.69 8.76,24.45 8.10,25.06 7.44,25.67 7.95,24.54 8.47,23.42 7.94,24.15 7.41,24.88 6.72,25.47 6.04,26.05 5.23,26.46 4.42,26.86 3.54,27.06 2.66,27.26 1.76,27.24 0.86,27.22 -0.00,26.99 -0.88,26.75 -1.67,26.32 -2.46,25.88 -3.12,25.27 -3.78,24.66 -4.28,23.91 -4.78,23.15 -5.08,22.30 -5.39,21.45 -5.48,20.56 -5.57,19.66 -5.44,18.77 -5.31,17.87 -4.98,17.04 -4.64,16.20 -4.33,16.30 -4.02,16.40 -0.94,21.39 2.14,26.38 4.08,24.99 6.03,23.59 5.41,24.25 4.80,24.91 4.05,25.40 3.30,25.89 2.46,26.19 1.61,26.48 0.72,26.57 -0.16,26.66 -1.05,26.53 -1.94,26.40 -2.77,26.06 -3.60,25.72 -4.33,25.20 -5.05,24.67 -5.63,23.98 -6.21,23.30 -6.61,22.49 -7.00,21.69 -7.20,20.81 -7.39,19.94 -7.37,19.04 -7.35,18.14 -7.11,17.28 -6.88,16.41 -6.44,15.63 -6.00,14.85 -5.72,14.25 -5.44,13.66 -4.25,11.54 -3.05,9.43 -1.01,7.22 1.02,5.02 1.87,4.72 2.73,4.42 3.62,4.34 4.52,4.25 5.42,4.38 6.31,4.52 7.14,4.86 7.98,5.20 8.71,5.73 9.44,6.27 10.02,6.96 10.60,7.65 11.00,8.46 11.39,9.27 11.59,10.15 11.78,11.03 11.76,11.94 11.73,12.84 11.49,13.71 11.25,14.58 10.81,15.37 10.37,16.15 9.76,16.81 9.14,17.47 8.38,17.97 7.63,18.46 9.34,14.16 11.05,9.86 9.04,14.22 7.03,18.57 6.29,19.08 5.55,19.59 4.70,19.90 3.86,20.22 2.97,20.32 2.08,20.42 1.18,20.31 0.29,20.20 -0.54,19.88 -1.38,19.55 -2.12,19.04 -2.85,18.52 -3.45,17.85 -4.04,17.17 -4.45,16.37 -4.87,15.57 -5.08,14.70 -5.29,13.83 -5.29,12.93 -5.28,12.03 -5.06,11.16 -4.84,10.28 -4.42,9.49 -4.00,8.69 -3.40,8.02 -2.80,7.35 -2.02,6.52 -1.25,5.68 1.29,4.61 3.84,3.53 7.09,4.45 10.34,5.36 11.87,10.15 13.40,14.95 11.23,17.42 9.06,19.89 6.36,20.39 3.65,20.89 0.62,18.50 -2.40,16.11 -2.11,11.40 -1.82,6.69 0.38,5.16 2.59,3.63 5.42,3.37 8.25,3.11 10.32,4.30 12.40,5.49 13.47,7.99 14.54,10.49 14.39,12.88 14.25,15.26 12.54,16.99 10.83,18.72 6.31,19.17 1.80,19.63 -0.70,18.12 -3.21,16.62 -4.08,13.81 -4.94,11.00 -4.56,8.68 -4.18,6.36 -2.02,4.13 0.13,1.91 2.72,1.55 5.32,1.18 7.96,2.55 10.60,3.92 10.93,6.19 11.26,8.46 9.29,11.38 7.32,14.29 4.90,14.77 2.48,15.24 -0.17,13.41 -2.83,11.57 -3.44,9.27 -4.05,6.96 -3.19,4.43 -2.33,1.90 0.36,0.05 3.06,-1.79 5.40,-1.72 7.74,-1.66 9.97,1.46 12.19,4.59 10.43,7.90 8.68,11.21 5.66,11.30 2.65,11.40 0.23,7.64 -2.19,3.89 -0.15,0.87 1.87,-2.14 4.10,-2.73 6.32,-3.33 9.08,-1.58 11.85,0.17 10.06,5.23 8.27,10.28 4.63,10.43 0.98,10.59 -0.62,7.54 -2.23,4.49 -2.64,4.28 -3.05,4.07 -3.50,3.65 -3.94,3.22 -4.27,2.70 -4.60,2.18 -4.79,1.60 -4.99,1.02 -5.04,0.41 -5.09,-0.20 -4.99,-0.80 -4.89,-1.41 -4.65,-1.97 -4.41,-2.54 -4.04,-3.03 -3.67,-3.52 -3.20,-3.91 -2.72,-4.30 -2.17,-4.56 -1.61,-4.83 -1.01,-4.95 -0.41,-5.07 0.19,-5.05 0.81,-5.02 1.40,-4.85 1.99,-4.68 2.52,-4.38 3.05,-4.07 3.05,-4.07 L 3.05,-4.07 Z"></path></g><g transform="translate(304.2291377427414 413.6666647250435) rotate(0 10.410823336901672 -2.7558061774151383)" stroke="none"><path fill="#1e1e1e" d="M 0.45,-5.01 Q 0.45,-5.01 2.40,-4.92 4.34,-4.82 6.59,-4.61 8.84,-4.39 10.98,-3.76 13.12,-3.13 15.81,-2.81 18.50,-2.49 16.36,-0.43 14.22,1.62 14.11,-0.78 14.01,-3.19 15.30,-6.06 16.59,-8.93 16.01,-6.86 15.43,-4.79 13.22,-4.62 11.00,-4.45 8.61,-4.64 6.21,-4.84 3.89,-4.85 1.57,-4.86 3.95,-6.22 6.33,-7.58 7.16,-5.36 7.99,-3.14 8.61,-0.86 9.22,1.41 11.43,1.14 13.64,0.88 12.76,-1.16 11.87,-3.20 11.87,-5.63 11.86,-8.06 14.52,-7.52 17.19,-6.99 14.58,-5.49 11.98,-3.99 10.15,-3.61 8.33,-3.23 7.08,-3.38 5.83,-3.52 4.68,-4.06 3.54,-4.59 2.63,-5.47 1.72,-6.34 1.14,-7.46 0.56,-8.57 0.36,-9.82 0.16,-11.07 0.37,-12.31 0.59,-13.55 1.18,-14.66 1.78,-15.77 2.70,-16.63 3.62,-17.50 4.77,-18.02 5.92,-18.54 7.17,-18.67 8.43,-18.80 9.66,-18.52 10.89,-18.24 11.96,-17.58 13.04,-16.93 13.85,-15.96 14.66,-15.00 15.12,-13.82 15.58,-12.65 15.64,-11.39 15.70,-10.13 15.35,-8.91 15.01,-7.70 14.30,-6.66 13.58,-5.62 12.57,-4.87 11.56,-4.11 10.37,-3.71 9.17,-3.32 7.91,-3.33 6.65,-3.33 5.46,-3.74 4.26,-4.15 3.26,-4.92 2.26,-5.69 1.56,-6.74 0.86,-7.79 0.53,-9.01 0.20,-10.22 0.28,-11.48 0.36,-12.74 0.83,-13.91 1.30,-15.08 2.13,-16.03 2.95,-16.99 4.03,-17.63 5.12,-18.28 6.35,-18.54 7.58,-18.80 7.58,-18.80 7.58,-18.80 8.61,-19.10 9.63,-19.39 7.86,-18.04 6.10,-16.68 7.76,-18.57 9.43,-20.47 12.07,-21.15 14.71,-21.84 16.90,-21.51 19.09,-21.17 21.36,-19.41 23.62,-17.66 25.09,-14.64 26.55,-11.62 26.93,-8.59 27.32,-5.55 27.31,-3.28 27.29,-1.00 27.10,1.69 26.91,4.39 25.63,7.10 24.35,9.81 22.28,11.98 20.20,14.14 17.30,15.19 14.40,16.23 12.05,16.18 9.70,16.14 6.97,15.24 4.24,14.35 1.63,12.68 -0.97,11.02 -2.64,9.09 -4.32,7.17 -5.28,4.36 -6.24,1.56 -6.58,-1.27 -6.91,-4.11 -7.51,-6.70 -8.10,-9.28 -7.62,-11.67 -7.14,-14.07 -4.98,-16.32 -2.81,-18.57 0.73,-19.12 4.28,-19.67 6.81,-19.62 9.35,-19.57 11.81,-19.22 14.28,-18.87 16.77,-18.44 19.27,-18.02 21.14,-17.01 23.01,-16.00 24.86,-14.33 26.72,-12.67 27.54,-9.41 28.36,-6.15 27.96,-3.97 27.56,-1.78 27.41,0.76 27.25,3.31 24.86,6.21 22.46,9.11 19.82,9.52 17.17,9.93 14.96,9.19 12.75,8.44 10.59,7.84 8.44,7.25 5.92,6.39 3.40,5.53 1.47,5.27 -0.45,5.01 -1.05,4.89 -1.64,4.76 -2.19,4.49 -2.73,4.23 -3.20,3.84 -3.66,3.45 -4.02,2.96 -4.38,2.47 -4.62,1.91 -4.85,1.35 -4.94,0.75 -5.03,0.15 -4.98,-0.45 -4.92,-1.05 -4.72,-1.63 -4.53,-2.20 -4.20,-2.71 -3.87,-3.22 -3.42,-3.64 -2.98,-4.05 -2.45,-4.35 -1.92,-4.65 -1.34,-4.81 -0.75,-4.98 -0.15,-5.00 0.45,-5.01 0.45,-5.01 L 0.45,-5.01 Z"></path></g><g stroke-linecap="round" transform="translate(10 10) rotate(0 281.1361009867543 281.1361009867543)"><path d="M562.27 281.14 C562.27 286.58, 562.11 292.04, 561.8 297.48 C561.48 302.92, 561 308.36, 560.37 313.77 C559.74 319.19, 558.95 324.59, 558 329.95 C557.05 335.32, 555.95 340.67, 554.69 345.97 C553.44 351.27, 552.02 356.55, 550.46 361.77 C548.9 366.99, 547.18 372.17, 545.32 377.29 C543.45 382.41, 541.44 387.49, 539.28 392.49 C537.12 397.49, 534.81 402.44, 532.37 407.31 C529.92 412.18, 527.33 416.99, 524.61 421.7 C521.88 426.42, 519.02 431.07, 516.02 435.62 C513.03 440.18, 509.9 444.65, 506.64 449.02 C503.39 453.39, 500 457.67, 496.5 461.85 C493 466.02, 489.37 470.1, 485.63 474.06 C481.89 478.03, 478.03 481.89, 474.06 485.63 C470.1 489.37, 466.02 493, 461.85 496.5 C457.67 500, 453.39 503.39, 449.02 506.64 C444.65 509.9, 440.18 513.03, 435.62 516.02 C431.07 519.02, 426.42 521.88, 421.7 524.61 C416.99 527.33, 412.18 529.92, 407.31 532.37 C402.44 534.81, 397.49 537.12, 392.49 539.28 C387.49 541.44, 382.41 543.45, 377.29 545.32 C372.17 547.18, 366.99 548.9, 361.77 550.46 C356.55 552.02, 351.27 553.44, 345.97 554.69 C340.67 555.95, 335.32 557.05, 329.95 558 C324.59 558.95, 319.19 559.74, 313.77 560.37 C308.36 561, 302.92 561.48, 297.48 561.8 C292.04 562.11, 286.58 562.27, 281.14 562.27 C275.69 562.27, 270.23 562.11, 264.79 561.8 C259.35 561.48, 253.91 561, 248.5 560.37 C243.09 559.74, 237.68 558.95, 232.32 558 C226.95 557.05, 221.6 555.95, 216.3 554.69 C211 553.44, 205.73 552.02, 200.51 550.46 C195.29 548.9, 190.1 547.18, 184.98 545.32 C179.86 543.45, 174.79 541.44, 169.78 539.28 C164.78 537.12, 159.83 534.81, 154.96 532.37 C150.09 529.92, 145.29 527.33, 140.57 524.61 C135.85 521.88, 131.2 519.02, 126.65 516.02 C122.1 513.03, 117.62 509.9, 113.25 506.64 C108.88 503.39, 104.6 500, 100.43 496.5 C96.25 493, 92.17 489.37, 88.21 485.63 C84.25 481.89, 80.38 478.03, 76.65 474.06 C72.91 470.1, 69.28 466.02, 65.77 461.85 C62.27 457.67, 58.88 453.39, 55.63 449.02 C52.38 444.65, 49.24 440.18, 46.25 435.62 C43.26 431.07, 40.39 426.42, 37.67 421.7 C34.94 416.99, 32.35 412.18, 29.9 407.31 C27.46 402.44, 25.15 397.49, 22.99 392.49 C20.83 387.49, 18.82 382.41, 16.95 377.29 C15.09 372.17, 13.37 366.99, 11.81 361.77 C10.25 356.55, 8.83 351.27, 7.58 345.97 C6.32 340.67, 5.22 335.32, 4.27 329.95 C3.32 324.59, 2.53 319.19, 1.9 313.77 C1.27 308.36, 0.79 302.92, 0.48 297.48 C0.16 292.04, 0 286.58, 0 281.14 C0 275.69, 0.16 270.23, 0.48 264.79 C0.79 259.35, 1.27 253.91, 1.9 248.5 C2.53 243.09, 3.32 237.68, 4.27 232.32 C5.22 226.95, 6.32 221.6, 7.58 216.3 C8.83 211, 10.25 205.73, 11.81 200.51 C13.37 195.29, 15.09 190.1, 16.95 184.98 C18.82 179.86, 20.83 174.79, 22.99 169.78 C25.15 164.78, 27.46 159.83, 29.9 154.96 C32.35 150.09, 34.94 145.29, 37.67 140.57 C40.39 135.85, 43.26 131.2, 46.25 126.65 C49.24 122.1, 52.38 117.62, 55.63 113.25 C58.88 108.88, 62.27 104.6, 65.77 100.43 C69.28 96.25, 72.91 92.17, 76.65 88.21 C80.38 84.25, 84.25 80.38, 88.21 76.65 C92.17 72.91, 96.25 69.28, 100.43 65.77 C104.6 62.27, 108.88 58.88, 113.25 55.63 C117.62 52.38, 122.1 49.24, 126.65 46.25 C131.2 43.26, 135.85 40.39, 140.57 37.67 C145.29 34.94, 150.09 32.35, 154.96 29.9 C159.83 27.46, 164.78 25.15, 169.78 22.99 C174.79 20.83, 179.86 18.82, 184.98 16.95 C190.1 15.09, 195.29 13.37, 200.51 11.81 C205.73 10.25, 211 8.83, 216.3 7.58 C221.6 6.32, 226.95 5.22, 232.32 4.27 C237.68 3.32, 243.09 2.53, 248.5 1.9 C253.91 1.27, 259.35 0.79, 264.79 0.48 C270.23 0.16, 275.69 0, 281.14 0 C286.58 0, 292.04 0.16, 297.48 0.48 C302.92 0.79, 308.36 1.27, 313.77 1.9 C319.19 2.53, 324.59 3.32, 329.95 4.27 C335.32 5.22, 340.67 6.32, 345.97 7.58 C351.27 8.83, 356.55 10.25, 361.77 11.81 C366.99 13.37, 372.17 15.09, 377.29 16.95 C382.41 18.82, 387.49 20.83, 392.49 22.99 C397.49 25.15, 402.44 27.46, 407.31 29.9 C412.18 32.35, 416.99 34.94, 421.7 37.67 C426.42 40.39, 431.07 43.26, 435.62 46.25 C440.18 49.24, 444.65 52.38, 449.02 55.63 C453.39 58.88, 457.67 62.27, 461.85 65.77 C466.02 69.28, 470.1 72.91, 474.06 76.65 C478.03 80.38, 481.89 84.25, 485.63 88.21 C489.37 92.17, 493 96.25, 496.5 100.43 C500 104.6, 503.39 108.88, 506.64 113.25 C509.9 117.62, 513.03 122.1, 516.02 126.65 C519.02 131.2, 521.88 135.85, 524.61 140.57 C527.33 145.29, 529.92 150.09, 532.37 154.96 C534.81 159.83, 537.12 164.78, 539.28 169.78 C541.44 174.79, 543.45 179.86, 545.32 184.98 C547.18 190.1, 548.9 195.29, 550.46 200.51 C552.02 205.73, 553.44 211, 554.69 216.3 C555.95 221.6, 557.05 226.95, 558 232.32 C558.95 237.68, 559.74 243.09, 560.37 248.5 C561 253.91, 561.48 259.35, 561.8 264.79 C562.11 270.23, 562.27 275.69, 562.27 281.14" stroke="#1e1e1e" stroke-width="4" fill="none"></path></g></svg>